<svg width="70" height="70" viewBox="0 0 70 70" fill="none" xmlns="http://www.w3.org/2000/svg">
<rect width="70" height="70" rx="15" fill="white"/>
<path d="M10 10H60M10 10L60 60M10 10L60 39.6296M10 10V39.6296M60 10C32.3404 16.7901 25.4255 25.4255 10 39.6296M60 10V39.6296M10 39.6296V60M10 39.6296L22.5 37.3148L28.75 36.1574L35 35L47.766 32.3798L60 39.6296M60 39.6296V60M60 39.6296L47.5 44.7222L35 49.8148H10V60M10 60H60" stroke="#352A54" stroke-width="5"/>
<path d="M10 35.5V11L58 25.3415L10 35.5ZM10 35.5V60H58L10 35.5Z" stroke="#1496BF" stroke-width="5"/>
</svg>
